<svg width="431" height="235" viewBox="0 0 431 235" fill="none" xmlns="http://www.w3.org/2000/svg">
<rect width="431" height="235" fill="#0D1928"/>
<path fill-rule="evenodd" clip-rule="evenodd" d="M168.351 127.956C168.35 131.514 163.75 132.936 161.737 130.001L150.225 113.216C140.993 99.754 120 96.8309 120 113.149V136.761C120 137.785 120.057 138.795 120.167 139.789C122.482 160.626 146.013 146.406 146.018 125.441C146.019 121.883 150.619 120.461 152.632 123.396L160.295 134.568C171.636 151.104 198 156.805 198 136.761V113.149C198 98.1549 185.831 86 170.82 86C169.462 86 168.361 87.0995 168.36 88.456L168.351 127.956Z" fill="white"/>
<path d="M211.355 132V120.39C211.355 113.01 215.765 109.185 222.335 109.185C228.905 109.185 233.315 113.01 233.315 120.39V132H230.3V120.39C230.3 114.9 227.15 111.975 222.335 111.975C217.52 111.975 214.37 114.9 214.37 120.39V132H211.355ZM248.792 132.585C241.772 132.585 236.822 127.635 236.822 120.885C236.822 114.135 241.772 109.185 248.792 109.185C255.812 109.185 260.672 114.135 260.672 120.885V121.875H239.927C240.332 126.51 243.797 129.795 248.792 129.795C252.302 129.795 255.002 128.355 256.442 125.79H259.727C258.017 129.885 253.967 132.585 248.792 132.585ZM240.017 119.175H257.522C256.802 114.675 253.292 111.975 248.792 111.975C244.157 111.975 240.692 114.81 240.017 119.175ZM261.597 132L271.047 120.705L261.957 109.77H265.692L273.252 119.085L280.812 109.77H284.457L275.322 120.705L284.817 132H281.082L273.117 122.325L265.242 132H261.597ZM297.253 132.585C290.998 132.585 285.733 128.13 285.733 121.02C285.733 114.09 290.683 109.185 297.703 109.185C304.723 109.185 309.628 114 309.628 121.02V132H306.838V126.51C305.263 130.47 301.573 132.585 297.253 132.585ZM297.703 129.795C303.013 129.795 306.613 126.015 306.613 120.885C306.613 115.755 303.013 111.975 297.703 111.975C292.393 111.975 288.793 115.755 288.793 120.885C288.793 126.015 292.393 129.795 297.703 129.795Z" fill="#FEFEFE"/>
</svg>
