<svg width="431" height="145" viewBox="0 0 431 145" fill="none" xmlns="http://www.w3.org/2000/svg">
<rect width="431" height="145" fill="#0D1928"/>
<path fill-rule="evenodd" clip-rule="evenodd" d="M167.351 82.9562C167.35 86.5138 162.75 87.936 160.737 85.0011L149.225 68.2161C139.993 54.754 119 51.8309 119 68.1487V91.7609C119 92.7846 119.057 93.7949 119.167 94.7891C121.482 115.626 145.013 101.406 145.018 80.4406C145.019 76.883 149.619 75.4608 151.632 78.3956L159.295 89.568C170.636 106.104 197 111.805 197 91.7609V68.1487C197 53.1549 184.831 41 169.82 41C168.462 41 167.361 42.0995 167.36 43.456L167.351 82.9562Z" fill="white"/>
<path d="M210.355 87V75.39C210.355 68.01 214.765 64.185 221.335 64.185C227.905 64.185 232.315 68.01 232.315 75.39V87H229.3V75.39C229.3 69.9 226.15 66.975 221.335 66.975C216.52 66.975 213.37 69.9 213.37 75.39V87H210.355ZM247.792 87.585C240.772 87.585 235.822 82.635 235.822 75.885C235.822 69.135 240.772 64.185 247.792 64.185C254.812 64.185 259.672 69.135 259.672 75.885V76.875H238.927C239.332 81.51 242.797 84.795 247.792 84.795C251.302 84.795 254.002 83.355 255.442 80.79H258.727C257.017 84.885 252.967 87.585 247.792 87.585ZM239.017 74.175H256.522C255.802 69.675 252.292 66.975 247.792 66.975C243.157 66.975 239.692 69.81 239.017 74.175ZM260.597 87L270.047 75.705L260.957 64.77H264.692L272.252 74.085L279.812 64.77H283.457L274.322 75.705L283.817 87H280.082L272.117 77.325L264.242 87H260.597ZM296.253 87.585C289.998 87.585 284.733 83.13 284.733 76.02C284.733 69.09 289.683 64.185 296.703 64.185C303.723 64.185 308.628 69 308.628 76.02V87H305.838V81.51C304.263 85.47 300.573 87.585 296.253 87.585ZM296.703 84.795C302.013 84.795 305.613 81.015 305.613 75.885C305.613 70.755 302.013 66.975 296.703 66.975C291.393 66.975 287.793 70.755 287.793 75.885C287.793 81.015 291.393 84.795 296.703 84.795Z" fill="#FEFEFE"/>
<path d="M282.51 89.43C282.984 89.43 283.397 89.5333 283.75 89.74C284.11 89.9467 284.377 90.2067 284.55 90.52V89.52H285.47V95.12C285.47 95.62 285.364 96.0633 285.15 96.45C284.937 96.8433 284.63 97.15 284.23 97.37C283.837 97.59 283.377 97.7 282.85 97.7C282.13 97.7 281.53 97.53 281.05 97.19C280.57 96.85 280.287 96.3867 280.2 95.8H281.1C281.2 96.1333 281.407 96.4 281.72 96.6C282.034 96.8067 282.41 96.91 282.85 96.91C283.35 96.91 283.757 96.7533 284.07 96.44C284.39 96.1267 284.55 95.6867 284.55 95.12V93.97C284.37 94.29 284.104 94.5567 283.75 94.77C283.397 94.9833 282.984 95.09 282.51 95.09C282.024 95.09 281.58 94.97 281.18 94.73C280.787 94.49 280.477 94.1533 280.25 93.72C280.024 93.2867 279.91 92.7933 279.91 92.24C279.91 91.68 280.024 91.19 280.25 90.77C280.477 90.3433 280.787 90.0133 281.18 89.78C281.58 89.5467 282.024 89.43 282.51 89.43ZM284.55 92.25C284.55 91.8367 284.467 91.4767 284.3 91.17C284.134 90.8633 283.907 90.63 283.62 90.47C283.34 90.3033 283.03 90.22 282.69 90.22C282.35 90.22 282.04 90.3 281.76 90.46C281.48 90.62 281.257 90.8533 281.09 91.16C280.924 91.4667 280.84 91.8267 280.84 92.24C280.84 92.66 280.924 93.0267 281.09 93.34C281.257 93.6467 281.48 93.8833 281.76 94.05C282.04 94.21 282.35 94.29 282.69 94.29C283.03 94.29 283.34 94.21 283.62 94.05C283.907 93.8833 284.134 93.6467 284.3 93.34C284.467 93.0267 284.55 92.6633 284.55 92.25ZM287.918 90.41C288.078 90.0967 288.305 89.8533 288.598 89.68C288.898 89.5067 289.262 89.42 289.688 89.42V90.36H289.448C288.428 90.36 287.918 90.9133 287.918 92.02V95H287.008V89.52H287.918V90.41ZM293.129 95.09C292.615 95.09 292.149 94.9733 291.729 94.74C291.315 94.5067 290.989 94.1767 290.749 93.75C290.515 93.3167 290.399 92.8167 290.399 92.25C290.399 91.69 290.519 91.1967 290.759 90.77C291.005 90.3367 291.339 90.0067 291.759 89.78C292.179 89.5467 292.649 89.43 293.169 89.43C293.689 89.43 294.159 89.5467 294.579 89.78C294.999 90.0067 295.329 90.3333 295.569 90.76C295.815 91.1867 295.939 91.6833 295.939 92.25C295.939 92.8167 295.812 93.3167 295.559 93.75C295.312 94.1767 294.975 94.5067 294.549 94.74C294.122 94.9733 293.649 95.09 293.129 95.09ZM293.129 94.29C293.455 94.29 293.762 94.2133 294.049 94.06C294.335 93.9067 294.565 93.6767 294.739 93.37C294.919 93.0633 295.009 92.69 295.009 92.25C295.009 91.81 294.922 91.4367 294.749 91.13C294.575 90.8233 294.349 90.5967 294.069 90.45C293.789 90.2967 293.485 90.22 293.159 90.22C292.825 90.22 292.519 90.2967 292.239 90.45C291.965 90.5967 291.745 90.8233 291.579 91.13C291.412 91.4367 291.329 91.81 291.329 92.25C291.329 92.6967 291.409 93.0733 291.569 93.38C291.735 93.6867 291.955 93.9167 292.229 94.07C292.502 94.2167 292.802 94.29 293.129 94.29ZM301.995 89.52V95H301.085V94.19C300.912 94.47 300.669 94.69 300.355 94.85C300.049 95.0033 299.709 95.08 299.335 95.08C298.909 95.08 298.525 94.9933 298.185 94.82C297.845 94.64 297.575 94.3733 297.375 94.02C297.182 93.6667 297.085 93.2367 297.085 92.73V89.52H297.985V92.61C297.985 93.15 298.122 93.5667 298.395 93.86C298.669 94.1467 299.042 94.29 299.515 94.29C300.002 94.29 300.385 94.14 300.665 93.84C300.945 93.54 301.085 93.1033 301.085 92.53V89.52H301.995ZM304.442 90.53C304.622 90.2167 304.888 89.9567 305.242 89.75C305.602 89.5367 306.018 89.43 306.492 89.43C306.978 89.43 307.418 89.5467 307.812 89.78C308.212 90.0133 308.525 90.3433 308.752 90.77C308.978 91.19 309.092 91.68 309.092 92.24C309.092 92.7933 308.978 93.2867 308.752 93.72C308.525 94.1533 308.212 94.49 307.812 94.73C307.418 94.97 306.978 95.09 306.492 95.09C306.025 95.09 305.612 94.9867 305.252 94.78C304.898 94.5667 304.628 94.3033 304.442 93.99V97.6H303.532V89.52H304.442V90.53ZM308.162 92.24C308.162 91.8267 308.078 91.4667 307.912 91.16C307.745 90.8533 307.518 90.62 307.232 90.46C306.952 90.3 306.642 90.22 306.302 90.22C305.968 90.22 305.658 90.3033 305.372 90.47C305.092 90.63 304.865 90.8667 304.692 91.18C304.525 91.4867 304.442 91.8433 304.442 92.25C304.442 92.6633 304.525 93.0267 304.692 93.34C304.865 93.6467 305.092 93.8833 305.372 94.05C305.658 94.21 305.968 94.29 306.302 94.29C306.642 94.29 306.952 94.21 307.232 94.05C307.518 93.8833 307.745 93.6467 307.912 93.34C308.078 93.0267 308.162 92.66 308.162 92.24Z" fill="white" fill-opacity="0.5"/>
</svg>
